<svg width="64" height="64" viewBox="0 0 64 64" fill="none" xmlns="http://www.w3.org/2000/svg">
<path d="M32 2.66666C24.3025 2.58844 16.889 5.56961 11.3886 10.955C5.88819 16.3404 2.75105 23.6893 2.66663 31.3867C2.69629 37.4698 4.65314 43.387 8.25613 48.2884C11.8591 53.1898 16.9228 56.8232 22.72 58.6667C24.1866 58.9333 24.72 58.0533 24.72 57.28V52.4C16.56 54.1333 14.8266 48.56 14.8266 48.56C14.2834 46.8104 13.1286 45.3148 11.5733 44.3467C8.90663 42.5867 11.7866 42.6133 11.7866 42.6133C12.7084 42.7366 13.5902 43.0669 14.3661 43.5795C15.142 44.0921 15.7917 44.7738 16.2666 45.5733C17.0942 47.0083 18.452 48.061 20.048 48.5049C21.6439 48.9488 23.3503 48.7483 24.8 47.9467C24.949 46.4863 25.6103 45.126 26.6666 44.1067C20.16 43.3867 13.3333 40.9333 13.3333 29.92C13.2751 27.0471 14.3366 24.2643 16.2933 22.16C15.4022 19.6935 15.5074 16.9768 16.5866 14.5867C16.5866 14.5867 19.0666 13.8133 24.5866 17.52C29.3917 16.2396 34.4482 16.2396 39.2533 17.52C44.8533 13.8133 47.2533 14.5867 47.2533 14.5867C48.3325 16.9768 48.4378 19.6935 47.5466 22.16C49.5488 24.2257 50.6678 26.9899 50.6666 29.8667C50.6666 40.9067 43.7866 43.3333 37.3333 44.0533C38.0399 44.7394 38.5857 45.5735 38.9316 46.4956C39.2774 47.4178 39.4146 48.4051 39.3333 49.3867V57.2533C39.3333 58.1867 39.8666 58.9333 41.3333 58.64C47.114 56.7851 52.1606 53.1508 55.7525 48.2564C59.3443 43.3619 61.2976 37.4576 61.3333 31.3867C61.2489 23.6893 58.1117 16.3404 52.6113 10.955C47.111 5.56961 39.6974 2.58844 32 2.66666" fill="#2A3135"/>
</svg>
